<svg xmlns="http://www.w3.org/2000/svg" xmlns:xlink="http://www.w3.org/1999/xlink" width="400" zoomAndPan="magnify" viewBox="0 0 300 299.999988" height="400" preserveAspectRatio="xMidYMid meet" version="1.0"><defs><clipPath id="221ee32969"><path d="M 43.183594 33 L 256 33 L 256 269.628906 L 43.183594 269.628906 Z M 43.183594 33 " clip-rule="nonzero"/></clipPath><clipPath id="c166d3c861"><path d="M 83.132812 44.863281 L 100 44.863281 L 100 56.960938 L 83.132812 56.960938 Z M 83.132812 44.863281 " clip-rule="nonzero"/></clipPath></defs><g clip-path="url(#221ee32969)"><path fill="#4f46e5" d="M 185.90625 130.617188 C 147.308594 130.617188 115.914062 162.019531 115.914062 200.605469 C 115.914062 239.195312 147.308594 270.597656 185.90625 270.597656 C 224.507812 270.597656 255.898438 239.195312 255.898438 200.605469 C 255.898438 162.019531 224.507812 130.617188 185.90625 130.617188 Z M 209.703125 209.738281 L 185.90625 209.738281 C 180.867188 209.738281 176.777344 205.648438 176.777344 200.605469 L 176.777344 175.835938 C 176.777344 170.796875 180.867188 166.707031 185.90625 166.707031 C 190.945312 166.707031 195.035156 170.796875 195.035156 175.835938 L 195.035156 191.476562 L 209.703125 191.476562 C 214.742188 191.476562 218.832031 195.566406 218.832031 200.605469 C 218.832031 205.648438 214.742188 209.738281 209.703125 209.738281 Z M 198.078125 33.234375 L 76.355469 33.234375 C 57.851562 33.234375 42.878906 48.207031 42.878906 66.710938 L 42.878906 224.953125 C 42.878906 243.453125 57.851562 258.425781 76.355469 258.425781 L 119.445312 258.425781 C 105.8125 242.96875 97.65625 222.761719 97.65625 200.605469 C 97.65625 151.917969 137.21875 112.355469 185.90625 112.355469 C 202.707031 112.355469 218.285156 116.984375 231.554688 125.257812 L 231.554688 66.710938 C 231.554688 48.207031 216.582031 33.234375 198.078125 33.234375 Z M 100.699219 161.046875 L 88.527344 161.046875 C 83.535156 161.046875 79.398438 156.90625 79.398438 151.917969 C 79.398438 146.925781 83.535156 142.789062 88.527344 142.789062 L 100.699219 142.789062 C 105.691406 142.789062 109.828125 146.925781 109.828125 151.917969 C 109.828125 156.90625 105.691406 161.046875 100.699219 161.046875 Z M 137.21875 124.53125 L 88.527344 124.53125 C 83.535156 124.53125 79.398438 120.390625 79.398438 115.398438 C 79.398438 110.410156 83.535156 106.269531 88.527344 106.269531 L 137.21875 106.269531 C 142.207031 106.269531 146.347656 110.410156 146.347656 115.398438 C 146.347656 120.390625 142.207031 124.53125 137.21875 124.53125 Z M 185.90625 88.011719 L 88.527344 88.011719 C 83.535156 88.011719 79.398438 83.875 79.398438 78.882812 C 79.398438 73.890625 83.535156 69.753906 88.527344 69.753906 L 185.90625 69.753906 C 190.898438 69.753906 195.035156 73.890625 195.035156 78.882812 C 195.035156 83.875 190.898438 88.011719 185.90625 88.011719 Z M 185.90625 88.011719 " fill-opacity="1" fill-rule="nonzero"/></g><g clip-path="url(#c166d3c861)"><path fill="#4f46e5" d="M 83.132812 44.863281 L 100 44.863281 L 100 56.960938 L 83.132812 56.960938 Z M 83.132812 44.863281 " fill-opacity="1" fill-rule="nonzero"/></g></svg>