<svg xmlns:xlink="http://www.w3.org/1999/xlink" xmlns="http://www.w3.org/2000/svg" width="512" height="512" viewBox="0 0 60 60" class="h-7 w-7"><path fill="#D6DBE3" d="M39 3a2 2 0 0 0-2-2H8.83a2 2 0 0 0-1.42.59L1.59 7.41A2 2 0 0 0 1 8.83V51a2 2 0 0 0 2 2h36z"></path><path fill="#F0F2F5" d="M8 1.18V6a2 2 0 0 1-2 2H1.18a2.02 2.02 0 0 1 .41-.59l5.82-5.82A2.02 2.02 0 0 1 8 1.18z"></path><path fill="#FCC10A" d="M34 21H21V8a13 13 0 0 1 13 13z"></path><path fill="#31B791" d="M34 21a12.94 12.94 0 0 1-2.47 7.61l-2.92 2.92a12.97 12.97 0 0 1-16.8-1.34L21 21z"></path><path fill="#2783EC" d="m21 21-9.19 9.19a13.01 13.01 0 0 1-2.44-15.01z"></path><path fill="#9E82EC" d="M21 8v13L9.37 15.18A13 13 0 0 1 21 8z"></path><circle cx="42" cy="42" r="17" fill="#F5AB01"></circle><circle cx="42" cy="42" r="13" fill="#FCC10A"></circle><path fill="#F5AB01" d="M43 41.1v-5.92A3 3 0 0 1 45 38a1 1 0 0 0 2 0 5 5 0 0 0-4-4.9V33a1 1 0 0 0-2 0v.1a5 5 0 0 0 0 9.8v5.92A3 3 0 0 1 39 46a1 1 0 0 0-2 0 5 5 0 0 0 4 4.9v.1a1 1 0 0 0 2 0v-.1a5 5 0 0 0 0-9.8zM39 38a3 3 0 0 1 2-2.82v5.64A3 3 0 0 1 39 38zm4 10.82v-5.64a2.98 2.98 0 0 1 0 5.64z"></path><path fill="#2783EC" d="M12 48a1 1 0 0 1-1-1v-4a1 1 0 0 1 2 0v4a1 1 0 0 1-1 1z"></path><path fill="#31B791" d="M16 48a1 1 0 0 1-1-1v-8a1 1 0 0 1 2 0v8a1 1 0 0 1-1 1z"></path><path fill="#8991A0" d="M21 48H8a1 1 0 0 1-1-1V37a1 1 0 0 1 2 0v9h12a1 1 0 0 1 0 2z"></path><g fill="#B9BFCC"><path d="M46.7 6.3a1 1 0 0 0-1.4 0l-3 3a1 1 0 0 0 1.4 1.4L45 9.42V21a1 1 0 0 0 2 0V9.41l1.3 1.3a1 1 0 0 0 1.4-1.42zM59.96 13.78 58.74 9.7a1 1 0 0 0-1.24-.67l-4.07 1.22a1 1 0 0 0 .58 1.91l1.75-.52-5.5 10.2a1 1 0 0 0 1.76.95l5.5-10.2.52 1.75a1 1 0 0 0 .96.71.98.98 0 0 0 .29-.04 1 1 0 0 0 .67-1.24z" fill="#B9BFCC"></path></g></svg>